<?xml version="1.0" standalone="no"?>
<!DOCTYPE svg PUBLIC "-//W3C//DTD SVG 20010904//EN"
 "http://www.w3.org/TR/2001/REC-SVG-20010904/DTD/svg10.dtd">
<svg version="1.0" xmlns="http://www.w3.org/2000/svg"
 width="108.000000pt" height="108.000000pt" viewBox="0 0 108.000000 108.000000"
 preserveAspectRatio="xMidYMid meet">
<metadata>
Created by potrace 1.14, written by Peter Selinger 2001-2017
</metadata>
<g transform="translate(0.000000,108.000000) scale(0.100000,-0.100000)"
fill="#000000" stroke="none">
<path d="M0 540 l0 -540 330 0 c323 0 330 0 330 20 0 11 5 20 10 20 6 0 10 -9
10 -20 0 -11 5 -20 10 -20 6 0 10 9 10 20 0 11 7 20 15 20 8 0 15 5 15 10 0 6
9 10 20 10 15 0 20 7 20 25 0 19 5 25 21 25 11 0 17 5 14 10 -4 6 12 28 34 49
23 22 41 44 41 49 0 5 9 17 20 27 11 10 20 24 20 31 0 7 8 11 20 9 11 -2 20 1
20 7 0 5 11 19 25 30 14 11 25 26 25 34 0 29 22 51 46 46 l24 -4 0 341 0 341
-540 0 -540 0 0 -540z m692 266 c100 -19 178 -56 237 -111 57 -54 75 -97 69
-166 -10 -97 -96 -178 -238 -223 -233 -74 -502 -14 -611 137 -52 71 -35 181
38 248 115 107 313 152 505 115z"/>
<path d="M340 605 c0 -8 9 -19 20 -25 30 -16 24 -25 -17 -25 -34 0 -38 -3 -41
-27 -4 -33 29 -58 79 -58 48 0 87 31 91 73 2 24 8 32 23 32 29 0 31 -33 4 -61
-19 -21 -21 -27 -9 -34 15 -9 289 -4 299 6 3 3 -4 14 -16 24 -28 23 -30 56 -3
70 11 6 20 17 20 25 0 12 -16 15 -73 15 -43 0 -78 -5 -85 -12 -9 -9 -12 -9
-12 0 0 9 -38 12 -140 12 -116 0 -140 -2 -140 -15z"/>
<path d="M1025 380 c-3 -5 -1 -10 4 -10 6 0 11 5 11 10 0 6 -2 10 -4 10 -3 0
-8 -4 -11 -10z"/>
</g>
</svg>
